<?xml version="1.0" encoding="UTF-8"?>
<!DOCTYPE svg PUBLIC "-//W3C//DTD SVG 1.1//EN" "http://www.w3.org/Graphics/SVG/1.1/DTD/svg11.dtd">
<svg xmlns="http://www.w3.org/2000/svg" version="1.1" width="200px" height="200px" style="shape-rendering:geometricPrecision; text-rendering:geometricPrecision; image-rendering:optimizeQuality; fill-rule:evenodd; clip-rule:evenodd" xmlns:xlink="http://www.w3.org/1999/xlink">
<g><path style="opacity:1" fill="#6e3565" d="M 94.5,45.5 C 101.58,44.193 105.58,47.0263 106.5,54C 101.378,62.9146 97.0442,72.2479 93.5,82C 95.8297,83.3454 98.1631,83.5121 100.5,82.5C 104.207,71.962 111.541,65.462 122.5,63C 146.093,58.971 164.593,66.8043 178,86.5C 182.273,94.7116 186.273,103.045 190,111.5C 190.667,114.833 190.667,118.167 190,121.5C 181.15,129.842 170.983,136.008 159.5,140C 149.127,141.823 139.461,139.989 130.5,134.5C 108.142,162.585 84.6421,163.585 60,137.5C 57.0545,132.664 54.8878,127.498 53.5,122C 46.543,122.539 39.543,123.039 32.5,123.5C 22.5494,124.108 15.0494,120.108 10,111.5C 8.566,107.594 8.23266,103.594 9,99.5C 13.1869,84.62 20.3536,71.4533 30.5,60C 40.3235,51.8919 51.6568,48.0586 64.5,48.5C 71.1638,49.2226 77.8304,49.3893 84.5,49C 88.2451,48.6978 91.5784,47.5312 94.5,45.5 Z"/></g>
<g><path style="opacity:1" fill="#d983a2" d="M 96.5,50.5 C 98.8242,49.1674 100.491,49.8341 101.5,52.5C 92.8671,59.4654 84.8671,67.1321 77.5,75.5C 74.8739,77.8235 72.2072,80.1568 69.5,82.5C 63.049,80.2487 57.049,77.2487 51.5,73.5C 54.4835,70.6742 57.8168,68.3409 61.5,66.5C 72.9529,63.7123 83.9529,59.5457 94.5,54C 95.5,53 96.5,52 97.5,51C 97.2716,50.6012 96.9382,50.4346 96.5,50.5 Z"/></g>
<g><path style="opacity:1" fill="#e0b3b4" d="M 96.5,50.5 C 96.9382,50.4346 97.2716,50.6012 97.5,51C 96.5,52 95.5,53 94.5,54C 83.9529,59.5457 72.9529,63.7123 61.5,66.5C 56.2172,66.8818 51.2172,65.8818 46.5,63.5C 48.7319,61.3549 51.3986,59.8549 54.5,59C 52.641,58.3161 50.9743,57.3161 49.5,56C 50.056,55.6174 50.3893,55.1174 50.5,54.5C 63.1217,53.7046 75.7884,53.2046 88.5,53C 91.154,52.0594 93.8206,51.2261 96.5,50.5 Z"/></g>
<g><path style="opacity:1" fill="#b47b9a" d="M 101.5,52.5 C 101.657,53.8734 101.49,55.2068 101,56.5C 97.0414,62.084 93.8747,68.084 91.5,74.5C 86.7858,74.3531 82.1191,74.6864 77.5,75.5C 84.8671,67.1321 92.8671,59.4654 101.5,52.5 Z"/></g>
<g><path style="opacity:1" fill="#d399af" d="M 50.5,54.5 C 50.3893,55.1174 50.056,55.6174 49.5,56C 50.9743,57.3161 52.641,58.3161 54.5,59C 51.3986,59.8549 48.7319,61.3549 46.5,63.5C 51.2172,65.8818 56.2172,66.8818 61.5,66.5C 57.8168,68.3409 54.4835,70.6742 51.5,73.5C 50.2905,73.9321 49.2905,74.5987 48.5,75.5C 47.391,75.5569 46.391,75.8902 45.5,76.5C 41.3998,76.7633 37.3998,76.4299 33.5,75.5C 36.6228,70.5428 40.6228,66.3761 45.5,63C 38.2542,65.728 32.5876,70.5613 28.5,77.5C 26.847,77.3404 25.5137,76.6737 24.5,75.5C 30.1913,64.808 38.858,57.808 50.5,54.5 Z"/></g>
<g><path style="opacity:1" fill="#dfbcb9" d="M 151.5,69.5 C 149.833,70.5 148.5,71.8333 147.5,73.5C 138.923,71.967 130.256,71.1337 121.5,71C 120.833,70.3333 120.167,69.6667 119.5,69C 130.146,65.6441 140.812,65.8107 151.5,69.5 Z"/></g>
<g><path style="opacity:1" fill="#e8d8b7" d="M 116.5,89.5 C 115.414,89.38 114.747,88.7133 114.5,87.5C 115.53,83.5351 115.697,79.5351 115,75.5C 114.228,82.0535 111.728,83.0535 107.5,78.5C 108.95,75.2155 111.283,72.7155 114.5,71C 116.367,70.2888 117.867,70.7888 119,72.5C 120.108,78.5042 119.275,84.1709 116.5,89.5 Z"/></g>
<g><path style="opacity:1" fill="#da97a3" d="M 151.5,69.5 C 162.987,74.8177 171.154,83.151 176,94.5C 175.292,93.6195 174.458,92.9528 173.5,92.5C 171.067,88.2319 167.734,84.7319 163.5,82C 158.517,78.344 153.184,75.5107 147.5,73.5C 148.5,71.8333 149.833,70.5 151.5,69.5 Z"/></g>
<g><path style="opacity:1" fill="#c082ae" d="M 51.5,73.5 C 57.049,77.2487 63.049,80.2487 69.5,82.5C 68.1667,84.1667 66.8333,85.8333 65.5,87.5C 60.9841,90.2562 56.6507,93.2562 52.5,96.5C 45.5201,100.16 38.1868,102.826 30.5,104.5C 28.1005,102.419 27.9338,100.086 30,97.5C 35.2497,89.4152 41.4163,82.0818 48.5,75.5C 49.2905,74.5987 50.2905,73.9321 51.5,73.5 Z"/></g>
<g><path style="opacity:1" fill="#a86395" d="M 91.5,74.5 C 90.5134,77.1456 89.5134,79.8122 88.5,82.5C 83.0221,83.7708 77.6887,85.4375 72.5,87.5C 70.3743,86.8968 68.0409,86.8968 65.5,87.5C 66.8333,85.8333 68.1667,84.1667 69.5,82.5C 72.2072,80.1568 74.8739,77.8235 77.5,75.5C 82.1191,74.6864 86.7858,74.3531 91.5,74.5 Z"/></g>
<g><path style="opacity:1" fill="#dfbaa7" d="M 116.5,89.5 C 109.817,102.325 105.817,101.492 104.5,87C 104.634,83.7588 105.634,80.9255 107.5,78.5C 111.728,83.0535 114.228,82.0535 115,75.5C 115.697,79.5351 115.53,83.5351 114.5,87.5C 114.747,88.7133 115.414,89.38 116.5,89.5 Z"/></g>
<g><path style="opacity:1" fill="#ddb3b4" d="M 153.5,78.5 C 152.526,81.4959 150.526,83.1625 147.5,83.5C 139.409,80.6817 131.075,79.0151 122.5,78.5C 122.286,76.8561 122.62,75.3561 123.5,74C 133.916,72.8507 143.916,74.3507 153.5,78.5 Z"/></g>
<g><path style="opacity:1" fill="#bc7eaa" d="M 24.5,75.5 C 25.5137,76.6737 26.847,77.3404 28.5,77.5C 24.7338,82.6961 21.7338,88.3628 19.5,94.5C 18.1667,95.8333 16.8333,95.8333 15.5,94.5C 17.9423,87.8069 20.9423,81.4735 24.5,75.5 Z"/></g>
<g><path style="opacity:1" fill="#be81ac" d="M 33.5,75.5 C 37.3998,76.4299 41.3998,76.7633 45.5,76.5C 37.7579,83.0723 30.9246,90.4056 25,98.5C 22.6807,97.5915 22.0141,95.9248 23,93.5C 25.2517,86.6479 28.7517,80.6479 33.5,75.5 Z"/></g>
<g><path style="opacity:1" fill="#dd9da6" d="M 153.5,78.5 C 156.661,79.9131 159.661,81.5797 162.5,83.5C 161.478,86.5223 159.478,88.5223 156.5,89.5C 153.982,86.7436 150.982,84.7436 147.5,83.5C 150.526,83.1625 152.526,81.4959 153.5,78.5 Z"/></g>
<g><path style="opacity:1" fill="#e3c3bd" d="M 143.5,84.5 C 142.77,86.045 141.437,86.8784 139.5,87C 136.5,87.1667 133.5,87.3333 130.5,87.5C 127.087,87.483 124.087,86.8164 121.5,85.5C 121.5,84.1667 121.5,82.8333 121.5,81.5C 129.034,81.2008 136.368,82.2008 143.5,84.5 Z"/></g>
<g><path style="opacity:1" fill="#dfb3b4" d="M 143.5,84.5 C 147.755,86.3629 152.088,88.0296 156.5,89.5C 158.884,91.8847 161.55,93.8847 164.5,95.5C 151.331,97.9487 137.997,98.9487 124.5,98.5C 118.321,95.1012 117.321,90.7678 121.5,85.5C 124.087,86.8164 127.087,87.483 130.5,87.5C 133.5,87.3333 136.5,87.1667 139.5,87C 141.437,86.8784 142.77,86.045 143.5,84.5 Z"/></g>
<g><path style="opacity:1" fill="#9b5694" d="M 72.5,87.5 C 65.5528,92.3439 60.2194,98.6772 56.5,106.5C 53.1044,108.598 49.4377,109.932 45.5,110.5C 46.7757,105.282 49.1091,100.615 52.5,96.5C 56.6507,93.2562 60.9841,90.2562 65.5,87.5C 68.0409,86.8968 70.3743,86.8968 72.5,87.5 Z"/></g>
<g><path style="opacity:1" fill="#d984a0" d="M 100.5,88.5 C 100.413,93.5365 100.746,98.5365 101.5,103.5C 99.3245,101.969 96.8245,101.303 94,101.5C 90.1652,101.89 86.3319,102.223 82.5,102.5C 82.6796,97.1272 84.3462,92.2938 87.5,88C 92.0204,87.1864 96.3537,87.353 100.5,88.5 Z"/></g>
<g><path style="opacity:1" fill="#d6849e" d="M 80.5,103.5 C 76.5898,103.263 72.9231,104.096 69.5,106C 68.1387,107.584 67.472,109.418 67.5,111.5C 66.6829,109.031 66.1829,106.365 66,103.5C 65.5017,106.817 65.335,110.15 65.5,113.5C 62.7052,114.063 60.3718,115.396 58.5,117.5C 59.2508,106.498 64.2508,97.9982 73.5,92C 76.5953,89.5849 79.9287,88.7515 83.5,89.5C 81.6439,93.9652 80.6439,98.6318 80.5,103.5 Z"/></g>
<g><path style="opacity:1" fill="#d884a0" d="M 162.5,83.5 C 166.35,86.2608 170.017,89.2608 173.5,92.5C 175.423,95.6032 177.59,98.6032 180,101.5C 182.119,105.402 183.952,109.402 185.5,113.5C 181.538,111.205 178.205,108.205 175.5,104.5C 172.149,101.152 168.482,98.1518 164.5,95.5C 161.55,93.8847 158.884,91.8847 156.5,89.5C 159.478,88.5223 161.478,86.5223 162.5,83.5 Z"/></g>
<g><path style="opacity:1" fill="#d39bb4" d="M 164.5,95.5 C 168.482,98.1518 172.149,101.152 175.5,104.5C 172.739,106.212 169.739,107.378 166.5,108C 156.972,109.951 147.306,110.784 137.5,110.5C 132.56,107.23 128.227,103.23 124.5,98.5C 137.997,98.9487 151.331,97.9487 164.5,95.5 Z"/></g>
<g><path style="opacity:1" fill="#a76395" d="M 52.5,96.5 C 49.1091,100.615 46.7757,105.282 45.5,110.5C 41.7643,111.989 37.7643,112.656 33.5,112.5C 33.0598,109.62 32.0598,106.954 30.5,104.5C 38.1868,102.826 45.5201,100.16 52.5,96.5 Z"/></g>
<g><path style="opacity:1" fill="#e8d9b7" d="M 15.5,111.5 C 15.1281,108.978 15.9614,106.978 18,105.5C 21.3333,107.5 24,110.167 26,113.5C 26.4706,108.928 24.6373,105.428 20.5,103C 17.648,102.087 15.4814,102.92 14,105.5C 13.51,104.207 13.3433,102.873 13.5,101.5C 14.0138,99.5613 15.3472,98.5613 17.5,98.5C 25.3422,101.011 30.0089,106.345 31.5,114.5C 31.4712,116.029 30.8045,117.196 29.5,118C 23.4975,118.856 18.8309,116.689 15.5,111.5 Z"/></g>
<g><path style="opacity:1" fill="#e0a1a8" d="M 101.5,103.5 C 102.092,106.127 102.425,108.794 102.5,111.5C 95.5141,109.841 88.6807,110.174 82,112.5C 81.5357,111.906 81.369,111.239 81.5,110.5C 82.4731,108.052 82.8064,105.385 82.5,102.5C 86.3319,102.223 90.1652,101.89 94,101.5C 96.8245,101.303 99.3245,101.969 101.5,103.5 Z"/></g>
<g><path style="opacity:1" fill="#b17898" d="M 127.5,119.5 C 125.5,119.833 123.5,120.167 121.5,120.5C 116.252,115.067 111.918,108.901 108.5,102C 109.108,101.13 109.941,100.63 111,100.5C 116.028,107.206 121.528,113.539 127.5,119.5 Z"/></g>
<g><path style="opacity:1" fill="#debaa3" d="M 13.5,101.5 C 13.3433,102.873 13.51,104.207 14,105.5C 15.4814,102.92 17.648,102.087 20.5,103C 24.6373,105.428 26.4706,108.928 26,113.5C 24,110.167 21.3333,107.5 18,105.5C 15.9614,106.978 15.1281,108.978 15.5,111.5C 12.9137,108.444 12.2471,105.111 13.5,101.5 Z"/></g>
<g><path style="opacity:1" fill="#e0a1a8" d="M 80.5,103.5 C 80.448,105.903 80.7814,108.236 81.5,110.5C 77.7366,111.701 74.07,113.201 70.5,115C 69.6198,116.356 69.2865,117.856 69.5,119.5C 68.2318,117.095 67.5651,114.428 67.5,111.5C 67.472,109.418 68.1387,107.584 69.5,106C 72.9231,104.096 76.5898,103.263 80.5,103.5 Z"/></g>
<g><path style="opacity:1" fill="#c082ae" d="M 175.5,104.5 C 178.205,108.205 181.538,111.205 185.5,113.5C 186.147,114.274 186.48,115.274 186.5,116.5C 186.66,118.355 185.993,119.688 184.5,120.5C 179.676,120.992 175.01,121.659 170.5,122.5C 160.089,121.695 150.423,118.695 141.5,113.5C 139.596,113.262 138.262,112.262 137.5,110.5C 147.306,110.784 156.972,109.951 166.5,108C 169.739,107.378 172.739,106.212 175.5,104.5 Z"/></g>
<g><path style="opacity:1" fill="#b47d9b" d="M 142.5,115.5 C 142.611,116.117 142.944,116.617 143.5,117C 139.179,117.499 134.846,117.666 130.5,117.5C 124.461,112.628 119.295,106.961 115,100.5C 114.288,98.3047 114.955,96.6381 117,95.5C 123.988,104.226 132.488,110.893 142.5,115.5 Z"/></g>
<g><path style="opacity:1" fill="#9c5892" d="M 54.5,109.5 C 55.1032,111.626 55.1032,113.959 54.5,116.5C 47.5893,117.993 40.5893,118.659 33.5,118.5C 33.5,117.5 33.5,116.5 33.5,115.5C 41.003,114.878 48.003,112.878 54.5,109.5 Z"/></g>
<g><path style="opacity:1" fill="#e4b8b9" d="M 81.5,110.5 C 81.369,111.239 81.5357,111.906 82,112.5C 88.6807,110.174 95.5141,109.841 102.5,111.5C 103.488,114.076 104.488,116.743 105.5,119.5C 93.5754,115.978 82.242,117.311 71.5,123.5C 70.3263,122.486 69.6596,121.153 69.5,119.5C 69.2865,117.856 69.6198,116.356 70.5,115C 74.07,113.201 77.7366,111.701 81.5,110.5 Z"/></g>
<g><path style="opacity:1" fill="#b8849f" d="M 100.5,88.5 C 104.284,105.726 112.95,120.059 126.5,131.5C 124.719,134.091 122.719,136.425 120.5,138.5C 115.088,132.43 110.088,126.096 105.5,119.5C 104.488,116.743 103.488,114.076 102.5,111.5C 102.425,108.794 102.092,106.127 101.5,103.5C 100.746,98.5365 100.413,93.5365 100.5,88.5 Z"/></g>
<g><path style="opacity:1" fill="#a86496" d="M 141.5,113.5 C 150.423,118.695 160.089,121.695 170.5,122.5C 162.158,125.111 153.491,126.444 144.5,126.5C 139.145,124.494 134.479,121.494 130.5,117.5C 134.846,117.666 139.179,117.499 143.5,117C 142.944,116.617 142.611,116.117 142.5,115.5C 142.167,114.833 141.833,114.167 141.5,113.5 Z"/></g>
<g><path style="opacity:1" fill="#dfaeb1" d="M 65.5,113.5 C 66.5552,118.389 68.2219,123.056 70.5,127.5C 68.1873,129.374 65.854,131.374 63.5,133.5C 59.8473,128.871 58.1807,123.538 58.5,117.5C 60.3718,115.396 62.7052,114.063 65.5,113.5 Z"/></g>
<g><path style="opacity:1" fill="#e6c6bf" d="M 105.5,119.5 C 110.088,126.096 115.088,132.43 120.5,138.5C 119.5,140.167 118.167,141.5 116.5,142.5C 116.533,138.594 115.199,135.26 112.5,132.5C 104.656,124.744 95.3225,121.91 84.5,124C 81.0473,125.194 78.0473,127.027 75.5,129.5C 73.6736,127.853 72.3403,125.853 71.5,123.5C 82.242,117.311 93.5754,115.978 105.5,119.5 Z"/></g>
<g><path style="opacity:1" fill="#ebd3bf" d="M 116.5,142.5 C 115.205,143.488 113.872,144.488 112.5,145.5C 112.205,143.577 111.372,141.91 110,140.5C 109.221,143.097 108.721,143.097 108.5,140.5C 108.573,138.973 107.906,137.973 106.5,137.5C 104.737,134.444 102.07,132.611 98.5,132C 91.9616,129.775 85.6283,130.275 79.5,133.5C 77.812,132.479 76.4787,131.145 75.5,129.5C 78.0473,127.027 81.0473,125.194 84.5,124C 95.3225,121.91 104.656,124.744 112.5,132.5C 115.199,135.26 116.533,138.594 116.5,142.5 Z"/></g>
<g><path style="opacity:1" fill="#9b5692" d="M 127.5,119.5 C 131.598,121.749 135.598,124.249 139.5,127C 144.196,129.68 149.196,130.68 154.5,130C 150.891,129.299 147.558,128.132 144.5,126.5C 153.491,126.444 162.158,125.111 170.5,122.5C 175.01,121.659 179.676,120.992 184.5,120.5C 177.905,125.474 170.905,129.974 163.5,134C 146.528,138.843 132.528,134.343 121.5,120.5C 123.5,120.167 125.5,119.833 127.5,119.5 Z"/></g>
<g><path style="opacity:1" fill="#e3c5ba" d="M 70.5,127.5 C 72.0908,130.431 74.0908,133.098 76.5,135.5C 75.0304,138.308 74.1971,141.308 74,144.5C 69.6215,141.623 66.1215,137.956 63.5,133.5C 65.854,131.374 68.1873,129.374 70.5,127.5 Z"/></g>
<g><path style="opacity:1" fill="#eadcb8" d="M 106.5,137.5 C 106.427,139.027 107.094,140.027 108.5,140.5C 108.721,143.097 109.221,143.097 110,140.5C 111.372,141.91 112.205,143.577 112.5,145.5C 106.453,149.519 99.7867,151.853 92.5,152.5C 89.1712,150.326 86.5045,147.492 84.5,144C 84.7591,142.739 85.4258,141.739 86.5,141C 91.5506,140.508 96.5506,140.508 101.5,141C 94.7701,136.241 88.2701,136.408 82,141.5C 81.3333,143.167 81.3333,144.833 82,146.5C 83.3756,147.705 84.5423,149.038 85.5,150.5C 76.5361,148.774 74.5361,144.274 79.5,137C 88.5371,132.409 97.5371,132.576 106.5,137.5 Z"/></g>
<g><path style="opacity:1" fill="#e0bca3" d="M 92.5,152.5 C 89.8478,152.59 87.5145,151.924 85.5,150.5C 84.5423,149.038 83.3756,147.705 82,146.5C 81.3333,144.833 81.3333,143.167 82,141.5C 88.2701,136.408 94.7701,136.241 101.5,141C 96.5506,140.508 91.5506,140.508 86.5,141C 85.4258,141.739 84.7591,142.739 84.5,144C 86.5045,147.492 89.1712,150.326 92.5,152.5 Z"/></g>
<g><path style="opacity:1" fill="#9f7486" d="M 106.5,137.5 C 107.906,137.973 108.573,138.973 108.5,140.5C 107.094,140.027 106.427,139.027 106.5,137.5 Z"/></g>
</svg>
